<svg xmlns="http://www.w3.org/2000/svg" xmlns:xlink="http://www.w3.org/1999/xlink" version="1.1" x="0px" y="0px" viewBox="0 0 75 93.75" style="enable-background:new 0 0 75 75;" xml:space="preserve"><g><path d="M66.5,36.5h-6.3818359l-7.1738281-14.3369141C52.4316406,21.137207,51.4013672,20.5,50.2539063,20.5H37.5   c-1.6542969,0-3,1.3457031-3,3v13h-5v-1h3c0.5527344,0,1-0.4477539,1-1v-4c0-0.5522461-0.4472656-1-1-1h-3v-1h3   c0.5527344,0,1-0.4477539,1-1v-4c0-0.5522461-0.4472656-1-1-1h-3v-3c0-0.5522461-0.4472656-1-1-1h-4c-0.5527344,0-1,0.4477539-1,1   v3h-6v-3c0-0.5522461-0.4472656-1-1-1h-4c-0.5527344,0-1,0.4477539-1,1v3h-3c-0.5527344,0-1,0.4477539-1,1v4   c0,0.5522461,0.4472656,1,1,1h3v1h-3c-0.5527344,0-1,0.4477539-1,1v4c0,0.5522461,0.4472656,1,1,1h3v1h-5   c-0.5527344,0-1,0.4477539-1,1v12c0,0.5522461,0.4472656,1,1,1h7.079895c0.487854,3.3865967,3.401062,6,6.920105,6   s6.432312-2.6134033,6.920166-6h19.159729c0.487854,3.3865967,3.401062,6,6.920105,6s6.432312-2.6134033,6.920166-6H67.5   c1.1025391,0,2-0.8969727,2-2v-3v-4v-2C69.5,37.8457031,68.1542969,36.5,66.5,36.5z M25.5,20.5h2v2h-2V20.5z M13.5,20.5h2v2h-2   V20.5z M9.5,26.5v-2h3h4h8h4h3v2h-3h-4h-8h-4H9.5z M27.5,28.5v1h-2v-1H27.5z M23.5,28.5v1h-6v-1H23.5z M15.5,28.5v1h-2v-1H15.5z    M9.5,33.5v-2h3h4h8h4h3v2h-3h-4h-8h-4H9.5z M27.5,35.5v1h-2v-1H27.5z M23.5,35.5v1h-6v-1H23.5z M15.5,35.5v1h-2v-1H15.5z    M20.5,54.5c-2.7568359,0-5-2.2431641-5-5s2.2431641-5,5-5s5,2.2431641,5,5S23.2568359,54.5,20.5,54.5z M53.5,54.5   c-2.7568359,0-5-2.2431641-5-5s2.2431641-5,5-5s5,2.2431641,5,5S56.2568359,54.5,53.5,54.5z M67.5,44.5h-3   c-0.5517578,0-1-0.4487305-1-1s0.4482422-1,1-1h3V44.5z M67.5,40.5h-3c-1.6542969,0-3,1.3457031-3,3s1.3457031,3,3,3h3v2   h-7.0712891c-0.0111084-0.0772095-0.0298462-0.1517334-0.043457-0.2280884   c-0.0168457-0.0945435-0.0332031-0.1889038-0.053772-0.2820435c-0.0283203-0.1281128-0.062561-0.2537842-0.0977783-0.3792114   c-0.0244141-0.0870361-0.0469971-0.1745605-0.074707-0.2601929c-0.0427246-0.132019-0.0924072-0.260498-0.1427002-0.3890381   c-0.0291748-0.074646-0.0551758-0.1506958-0.086853-0.2240601c-0.064209-0.1489258-0.1365967-0.2932739-0.2106934-0.4366455   c-0.0253906-0.0491943-0.0471191-0.1004028-0.0736084-0.1488647c-0.104248-0.1906128-0.2167358-0.3759155-0.3377075-0.5552979   c-0.0217285-0.0322876-0.046814-0.0618896-0.0690918-0.09375c-0.1011353-0.1447144-0.2053833-0.2869873-0.3168945-0.4234619   c-0.046936-0.0574341-0.0981445-0.1108398-0.1468506-0.166748c-0.0926514-0.1064453-0.1856689-0.2123413-0.2845459-0.3129883   c-0.0587158-0.0597534-0.1209717-0.1157227-0.1817627-0.1734009c-0.0953369-0.0903931-0.1911621-0.1798706-0.2914429-0.2648926   c-0.0674438-0.0571289-0.1373291-0.1109619-0.2068481-0.1655273c-0.0999146-0.0784302-0.2006836-0.1552124-0.3048706-0.2282104   c-0.0748291-0.0524292-0.151123-0.1022949-0.2280884-0.1518555c-0.1049805-0.067627-0.2114258-0.1326904-0.3201904-0.1947632   c-0.0805054-0.0459595-0.1616211-0.0903931-0.2440796-0.1332397c-0.1112061-0.0578003-0.2243652-0.1116333-0.3389893-0.1635132   c-0.0843506-0.038147-0.1685181-0.0760498-0.2545776-0.1109009c-0.1188354-0.0481567-0.2400513-0.0910645-0.3620605-0.1327515   c-0.0862427-0.02948-0.1715698-0.0600586-0.2592773-0.0862427c-0.128479-0.0383911-0.2595825-0.0697632-0.3910522-0.1008301   c-0.0848389-0.0200806-0.1685181-0.0427856-0.2545166-0.0596924c-0.1468506-0.0288696-0.2965088-0.0488281-0.4464722-0.0682983   c-0.0737305-0.0095825-0.1459961-0.0234985-0.220459-0.0307617C53.9597168,42.5126953,53.7313232,42.5,53.5,42.5   s-0.4597168,0.0126953-0.6853638,0.034729c-0.0744019,0.0072632-0.1466064,0.0211182-0.2202759,0.0307007   c-0.1500244,0.0195313-0.2998047,0.0395508-0.4467773,0.0684204c-0.0858154,0.0169067-0.1692505,0.0394897-0.2539063,0.0595093   c-0.1315918,0.0310669-0.2628784,0.062561-0.3915405,0.1009521c-0.0876465,0.0261841-0.1730957,0.0567627-0.2592773,0.0862427   c-0.1220093,0.041687-0.2432251,0.0845947-0.3620605,0.1327515c-0.0860596,0.0348511-0.1702271,0.0727539-0.2545776,0.1109009   c-0.114624,0.0518799-0.2277832,0.1057129-0.3389893,0.1635132c-0.0823975,0.0428467-0.1633911,0.0872192-0.2438965,0.1331787   c-0.1090088,0.0621948-0.2156372,0.1273193-0.3208618,0.1951294c-0.0765991,0.0493774-0.1525879,0.098999-0.2271118,0.1512451   c-0.1043701,0.0731201-0.2054443,0.1500854-0.305603,0.2286987c-0.069519,0.0545044-0.1392212,0.1082764-0.206604,0.1653442   c-0.1002808,0.085022-0.196106,0.1744995-0.2914429,0.2648926c-0.060791,0.0576782-0.1230469,0.1136475-0.1817627,0.1734009   c-0.098877,0.100647-0.1918945,0.206543-0.2845459,0.3129883c-0.0487061,0.0559082-0.0999146,0.109314-0.1468506,0.166687   c-0.1126709,0.1379395-0.2181396,0.2816772-0.3202515,0.4280396c-0.0210571,0.0302124-0.0447998,0.0582275-0.0653687,0.0887451   c-0.1210938,0.1795044-0.2337646,0.3650513-0.3381348,0.5557861c-0.0264893,0.0484619-0.0481567,0.0996704-0.0735474,0.1488647   c-0.0740967,0.1433716-0.1464844,0.2877197-0.2106934,0.4366455c-0.0316772,0.0733643-0.0576782,0.1494141-0.086853,0.2240601   c-0.050293,0.12854-0.0999756,0.257019-0.1427002,0.3890381c-0.0276489,0.0854492-0.0501099,0.1727295-0.0745239,0.2595825   c-0.0354004,0.1258545-0.0697021,0.2518921-0.0980835,0.3805542c-0.0204468,0.0925293-0.0366821,0.1862793-0.0534058,0.2800903   C46.6013184,48.3474731,46.5824585,48.4224243,46.5712891,48.5H27.4287109   c-0.0111084-0.0772095-0.0298462-0.1517334-0.043457-0.2280884c-0.0168457-0.0945435-0.0332031-0.1889038-0.053772-0.2820435   c-0.0283203-0.1281128-0.062561-0.2537842-0.0977783-0.3792114c-0.0244141-0.0870361-0.0469971-0.1745605-0.074707-0.2601929   c-0.0427246-0.132019-0.0924072-0.260498-0.1427002-0.3890381c-0.0291748-0.074646-0.0551758-0.1506958-0.086853-0.2240601   c-0.064209-0.1489258-0.1365967-0.2932739-0.2106934-0.4366455c-0.0253906-0.0491943-0.0471191-0.1004028-0.0736084-0.1488647   c-0.104248-0.1906128-0.2167358-0.3759155-0.3377075-0.5552979c-0.0217285-0.0322876-0.046814-0.0618896-0.0690918-0.09375   c-0.1011353-0.1447144-0.2053833-0.2869873-0.3168945-0.4234619c-0.046936-0.0574341-0.0981445-0.1108398-0.1468506-0.166748   c-0.0926514-0.1064453-0.1856689-0.2123413-0.2845459-0.3129883c-0.0587158-0.0597534-0.1209717-0.1157227-0.1817627-0.1734009   c-0.0953369-0.0903931-0.1911621-0.1798706-0.2914429-0.2648926c-0.0674438-0.0571289-0.1373291-0.1109619-0.2068481-0.1655273   c-0.0999146-0.0784302-0.2006836-0.1552124-0.3048706-0.2282104c-0.0748291-0.0524292-0.151123-0.1022949-0.2280884-0.1518555   c-0.1049805-0.067627-0.2114258-0.1326904-0.3201904-0.1947632c-0.0805054-0.0459595-0.1616211-0.0903931-0.2440796-0.1332397   c-0.1112061-0.0578003-0.2243652-0.1116333-0.3389893-0.1635132c-0.0843506-0.038147-0.1685181-0.0760498-0.2545776-0.1109009   c-0.1188354-0.0481567-0.2400513-0.0910645-0.3620605-0.1327515c-0.0862427-0.02948-0.1715698-0.0600586-0.2592773-0.0862427   c-0.128479-0.0383911-0.2595825-0.0697632-0.3910522-0.1008301c-0.0848389-0.0200806-0.1685181-0.0427856-0.2545166-0.0596924   c-0.1468506-0.0288696-0.2965088-0.0488281-0.4464722-0.0682983c-0.0737305-0.0095825-0.1459961-0.0234985-0.220459-0.0307617   C20.9597168,42.5126953,20.7313232,42.5,20.5,42.5s-0.4597168,0.0126953-0.6853638,0.034729   c-0.0744019,0.0072632-0.1466064,0.0211182-0.2202759,0.0307007c-0.1500244,0.0195313-0.2998047,0.0395508-0.4467773,0.0684204   c-0.0858154,0.0169067-0.1692505,0.0394897-0.2539063,0.0595093c-0.1315918,0.0310669-0.2628784,0.062561-0.3915405,0.1009521   c-0.0876465,0.0261841-0.1730957,0.0567627-0.2592773,0.0862427c-0.1220093,0.041687-0.2432251,0.0845947-0.3620605,0.1327515   c-0.0860596,0.0348511-0.1702271,0.0727539-0.2545776,0.1109009c-0.114624,0.0518799-0.2277832,0.1057129-0.3389893,0.1635132   c-0.0823975,0.0428467-0.1633911,0.0872192-0.2438965,0.1331787c-0.1090088,0.0621948-0.2156372,0.1273193-0.3208618,0.1951294   c-0.0765991,0.0493774-0.1525879,0.098999-0.2271118,0.1512451c-0.1043701,0.0731201-0.2054443,0.1500854-0.305603,0.2286987   c-0.069519,0.0545044-0.1392212,0.1082764-0.206604,0.1653442c-0.1002808,0.085022-0.196106,0.1744995-0.2914429,0.2648926   c-0.060791,0.0576782-0.1230469,0.1136475-0.1817627,0.1734009c-0.098877,0.100647-0.1918945,0.206543-0.2845459,0.3129883   c-0.0487061,0.0559082-0.0999146,0.109314-0.1468506,0.166687c-0.1126709,0.1379395-0.2181396,0.2816772-0.3202515,0.4280396   c-0.0210571,0.0302124-0.0447998,0.0582275-0.0653687,0.0887451c-0.1210938,0.1795044-0.2337646,0.3650513-0.3381348,0.5557861   c-0.0264893,0.0484619-0.0481567,0.0996704-0.0735474,0.1488647c-0.0740967,0.1433716-0.1464844,0.2877197-0.2106934,0.4366455   c-0.0316772,0.0733643-0.0576782,0.1494141-0.086853,0.2240601c-0.050293,0.12854-0.0999756,0.257019-0.1427002,0.3890381   c-0.0276489,0.0854492-0.0501099,0.1727295-0.0745239,0.2595825c-0.0354004,0.1258545-0.0697021,0.2518921-0.0980835,0.3805542   c-0.0204468,0.0925293-0.0366821,0.1862793-0.0534058,0.2800903C13.6013184,48.3474731,13.5824585,48.4224243,13.5712891,48.5H7.5   v-10h5h4h8h4h7c0.5527344,0,1-0.4477539,1-1v-14c0-0.5512695,0.4482422-1,1-1h12.7539063   c0.3789063,0,0.7324219,0.21875,0.9013672,0.5571289l7.4501953,14.8901367C58.7753906,38.2861328,59.1210938,38.5,59.5,38.5h7   c0.5517578,0,1,0.4487305,1,1V40.5z"/><path d="M49.5791016,25.0634766C49.4121094,24.71875,49.0625,24.5,48.6796875,24.5H39.5c-0.5527344,0-1,0.4477539-1,1v12   c0,0.5522461,0.4472656,1,1,1h5.9967651c0.0010986,0,0.0021362,0.0004883,0.0032349,0.0004883   c0.0009155,0,0.00177-0.0004883,0.0026855-0.0004883H54.5c0.3447266,0,0.6650391-0.1772461,0.8476563-0.4692383   s0.2021484-0.6572266,0.0517578-0.9672852L49.5791016,25.0634766z M40.5,36.5v-6h1.3066406l2.2501221,6H40.5z M46.1931763,36.5   l-2.7566528-7.3510742C43.2900391,28.7587891,42.9169922,28.5,42.5,28.5h-2v-2h7.5537109l4.8496094,10H46.1931763z"/><path d="M42.5,39.5h-3c-0.5527344,0-1,0.4477539-1,1s0.4472656,1,1,1h3c0.5527344,0,1-0.4477539,1-1S43.0527344,39.5,42.5,39.5z"/></g><text x="0" y="90" fill="#000000" font-size="5px" font-weight="bold" font-family="'Helvetica Neue', Helvetica, Arial-Unicode, Arial, Sans-serif">Created by Edwin Prayogi M</text><text x="0" y="95" fill="#000000" font-size="5px" font-weight="bold" font-family="'Helvetica Neue', Helvetica, Arial-Unicode, Arial, Sans-serif">from the Noun Project</text></svg>