<svg xmlns="http://www.w3.org/2000/svg" xmlns:xlink="http://www.w3.org/1999/xlink" version="1.1" x="0px" y="0px" viewBox="0 0 75 93.75" style="enable-background:new 0 0 75 75;" xml:space="preserve"><g><path d="M31.5,36.5h-1c-0.5522461,0-1,0.4477539-1,1s0.4477539,1,1,1h1c0.5522461,0,1-0.4477539,1-1S32.0522461,36.5,31.5,36.5z"/><path d="M45.5,36.5h-1c-0.5522461,0-1,0.4477539-1,1s0.4477539,1,1,1h1c0.5522461,0,1-0.4477539,1-1S46.0522461,36.5,45.5,36.5z"/><path d="M65.5,32.5h-3.1401367h-3.5267334l-7.4659424-5.5991211C51.0234375,26.6420898,50.597168,26.5,50.1665039,26.5H25.9140625   c-0.5341797,0-1.0361328,0.2080078-1.4140625,0.5859375L19.0859375,32.5H9.5c-0.7317505,0-1.4092407,0.2119141-2,0.5564575V30.5h7   c0.5522461,0,1-0.4477539,1-1v-4c0-0.5522461-0.4477539-1-1-1h-8c-0.5522461,0-1,0.4477539-1,1v4v7v1v0.737793V40.5v3   c0,1.6542969,1.3457031,3,3,3h7.1010742c0.4646606,2.2792969,2.4844971,4,4.8989258,4s4.4342651-1.7207031,4.8989258-4h24.2021484   c0.4646606,2.2792969,2.4844971,4,4.8989258,4s4.4342651-1.7207031,4.8989258-4H66.5c1.6542969,0,3-1.3457031,3-3v-6v-1   C69.5,34.2944336,67.7055664,32.5,65.5,32.5z M7.5,26.5h6v2h-6V26.5z M44.5,28.5h5.6665039L55.5,32.5h-11V28.5z M32.5,28.5h10v4   h-10V28.5z M25.9140625,28.5H30.5v4h-8.5859375L25.9140625,28.5z M7.5,38.5h4v1h-4V38.5z M20.5,48.5c-1.6542969,0-3-1.3457031-3-3   s1.3457031-3,3-3s3,1.3457031,3,3S22.1542969,48.5,20.5,48.5z M54.5,48.5c-1.6542969,0-3-1.3457031-3-3s1.3457031-3,3-3   s3,1.3457031,3,3S56.1542969,48.5,54.5,48.5z M67.5,43.5c0,0.5512695-0.4487305,1-1,1h-7.1005859   c-0.0001831-0.0009155-0.0006104-0.001709-0.0007935-0.0026245c-0.0037231-0.0180664-0.0116577-0.0343628-0.0155029-0.0523071   c-0.0621948-0.2880249-0.1496582-0.565979-0.2592163-0.833313c-0.0389404-0.0951538-0.0913086-0.1818237-0.1358643-0.2738647   c-0.0886841-0.1832886-0.1804199-0.3636475-0.2900391-0.5336914c-0.0637817-0.098999-0.1361694-0.1896362-0.206543-0.2836304   c-0.1117554-0.149353-0.2272949-0.2938843-0.3546753-0.4296875c-0.0835571-0.0891113-0.1709595-0.1721802-0.2607422-0.2549438   c-0.1344604-0.1239624-0.274292-0.2392578-0.4216919-0.3480835c-0.0984497-0.0727539-0.1967163-0.1431274-0.3005371-0.2086792   c-0.1585083-0.1000366-0.3240967-0.1863403-0.4938965-0.2684326c-0.1063232-0.0513916-0.2095947-0.1056519-0.3198853-0.1495972   c-0.1918945-0.076416-0.3919067-0.1325684-0.5945435-0.1849976c-0.0993042-0.0257568-0.1940918-0.0605469-0.2955933-0.0801392   C55.1416626,40.536377,54.8253784,40.5,54.5,40.5s-0.6416626,0.036377-0.9498901,0.0960083   c-0.1015015,0.0195923-0.1962891,0.0543823-0.2955933,0.0801392c-0.2026367,0.0524292-0.4026489,0.1085815-0.5945435,0.1849976   c-0.1102905,0.0439453-0.213562,0.0982056-0.3198853,0.1495972c-0.1697998,0.0820923-0.3353882,0.168396-0.4938965,0.2684326   c-0.1038208,0.0655518-0.2020874,0.1359253-0.3005371,0.2086792c-0.1473999,0.1088257-0.2872314,0.2241211-0.4216919,0.3480835   c-0.0897827,0.0827637-0.1771851,0.1658325-0.2607422,0.2549438c-0.1273804,0.1358032-0.2429199,0.2803345-0.3546753,0.4296875   c-0.0703735,0.0939941-0.1427612,0.1846313-0.206543,0.2836304c-0.1096191,0.1700439-0.201355,0.3504028-0.2900391,0.5336914   c-0.0445557,0.092041-0.0969238,0.1787109-0.1358643,0.2738647c-0.1095581,0.267334-0.1970215,0.5452881-0.2592163,0.833313   c-0.0038452,0.0179443-0.0117798,0.0342407-0.0155029,0.0523071C49.6011963,44.498291,49.600769,44.4990845,49.6005859,44.5   H25.3994141c-0.0001831-0.0009155-0.0006104-0.001709-0.0007935-0.0026245   c-0.0037231-0.0180664-0.0116577-0.0343628-0.0155029-0.0523071c-0.0621948-0.2880249-0.1496582-0.565979-0.2592163-0.833313   c-0.0389404-0.0951538-0.0913086-0.1818237-0.1358643-0.2738647c-0.0886841-0.1832886-0.1804199-0.3636475-0.2900391-0.5336914   c-0.0637817-0.098999-0.1361694-0.1896362-0.206543-0.2836304c-0.1117554-0.149353-0.2272949-0.2938843-0.3546753-0.4296875   c-0.0835571-0.0891113-0.1709595-0.1721802-0.2607422-0.2549438c-0.1344604-0.1239624-0.274292-0.2392578-0.4216919-0.3480835   c-0.0984497-0.0727539-0.1967163-0.1431274-0.3005371-0.2086792c-0.1585083-0.1000366-0.3240967-0.1863403-0.4938965-0.2684326   c-0.1063232-0.0513916-0.2095947-0.1056519-0.3198853-0.1495972c-0.1918945-0.076416-0.3919067-0.1325684-0.5945435-0.1849976   c-0.0993042-0.0257568-0.1940918-0.0605469-0.2955933-0.0801392C21.1416626,40.536377,20.8253784,40.5,20.5,40.5   s-0.6416626,0.036377-0.9498901,0.0960083c-0.1015015,0.0195923-0.1962891,0.0543823-0.2955933,0.0801392   c-0.2026367,0.0524292-0.4026489,0.1085815-0.5945435,0.1849976c-0.1102905,0.0439453-0.213562,0.0982056-0.3198853,0.1495972   c-0.1697998,0.0820923-0.3353882,0.168396-0.4938965,0.2684326c-0.1038208,0.0655518-0.2020874,0.1359253-0.3005371,0.2086792   c-0.1473999,0.1088257-0.2872314,0.2241211-0.4216919,0.3480835c-0.0897827,0.0827637-0.1771851,0.1658325-0.2607422,0.2549438   c-0.1273804,0.1358032-0.2429199,0.2803345-0.3546753,0.4296875c-0.0703735,0.0939941-0.1427612,0.1846313-0.206543,0.2836304   c-0.1096191,0.1700439-0.201355,0.3504028-0.2900391,0.5336914c-0.0445557,0.092041-0.0969238,0.1787109-0.1358643,0.2738647   c-0.1095581,0.267334-0.1970215,0.5452881-0.2592163,0.833313c-0.0038452,0.0179443-0.0117798,0.0342407-0.0155029,0.0523071   C15.6011963,44.498291,15.600769,44.4990845,15.6005859,44.5H8.5c-0.5512695,0-1-0.4487305-1-1v-2h5c0.5522461,0,1-0.4477539,1-1   v-3c0-0.5522461-0.4477539-1-1-1h-5c0-1.1030273,0.8969727-2,2-2h10h39h3.1049194l0.9331665,3.2739258   C62.6606445,38.2036133,63.0532227,38.5,63.5,38.5h4V43.5z M64.2548828,36.5l-0.5700073-2H65.5c1.1030273,0,2,0.8969727,2,2   H64.2548828z"/></g><text x="0" y="90" fill="#000000" font-size="5px" font-weight="bold" font-family="'Helvetica Neue', Helvetica, Arial-Unicode, Arial, Sans-serif">Created by Edwin Prayogi M</text><text x="0" y="95" fill="#000000" font-size="5px" font-weight="bold" font-family="'Helvetica Neue', Helvetica, Arial-Unicode, Arial, Sans-serif">from the Noun Project</text></svg>