<svg xmlns="http://www.w3.org/2000/svg" xmlns:xlink="http://www.w3.org/1999/xlink" version="1.1" x="0px" y="0px" viewBox="0 0 75 93.75" style="enable-background:new 0 0 75 75;" xml:space="preserve"><g><path d="M69.0810013,48.8227539C68.5692825,47.9946289,67.6825638,47.5,66.708931,47.5   c-1.0634766,0-2.0195313,0.5908203-2.4946289,1.5415039l-0.9526367,1.9057617   C63.0912552,51.2880859,62.7484818,51.5,62.3671341,51.5h-5.8671875v-6h7c2.2055664,0,4-1.7944336,4-4v-3.6083984   c0-1.1787109-0.5161133-2.2915039-1.4160156-3.0537109l-10.5488281-8.925293   c-1.1425781-0.9672852-2.7128906-1.2158203-4.0981445-0.6494141L50.9972,25.4431152l-3.6652222-5.4978027   C47.146431,19.6669922,46.8344193,19.5,46.4999466,19.5h-3v-1c0-0.5522461-0.4477539-1-1-1h-8c-0.5522461,0-1,0.4477539-1,1v4   c0,0.5522461,0.4477539,1,1,1h8c0.5522461,0,1-0.4477539,1-1v-1h2.4648438l3.1437988,4.7156982L31.3031693,33.5h-0.8032227v-2   c0-1.1030273-0.8969727-2-2-2h-7.434082l-1.2172852-2.0288086C19.4896927,26.8720703,18.8324661,26.5,18.1337357,26.5h-5.6337881   c-1.6542969,0-3,1.3457031-3,3v4h-1c-1.6542969,0-3,1.3457031-3,3v6c0,1.2206421,0.7351074,2.2689209,1.7838135,2.7369385   C6.1835413,46.3251953,5.4999475,47.8338013,5.4999475,49.5v2c0,3.3085938,2.6914063,6,6,6h20c3.3085938,0,6-2.6914063,6-6v-2   c0-1.5375366-0.5861816-2.9371948-1.5404663-4h14.5404663v6h-7c-1.6542969,0-3,1.3457031-3,3s1.3457031,3,3,3h19.6313477   c1.9057617,0,3.6191406-1.059082,4.472168-2.7636719l1.5996094-3.2001953   C69.6386185,50.6650391,69.59272,49.6508789,69.0810013,48.8227539z M41.4999466,21.5h-6v-2h6V21.5z M11.4999475,29.5   c0-0.5512695,0.4487305-1,1-1h5.6337881l1.2177734,2.0297852C19.7113724,31.128418,20.3681107,31.5,21.0663528,31.5   l7.4335938-0.0014648V33.5h-17V29.5z M7.4999475,36.5c0-0.5512695,0.4487305-1,1-1h2h19h2   c0.1298828,0,0.2583008-0.0253906,0.378418-0.0742188l20.3154297-8.3110352   c0.6918945-0.2827148,1.4780273-0.1591797,2.0493164,0.3242188l10.5483398,8.925293   c0.4135132,0.3502808,0.6547852,0.8502808,0.6930542,1.3858643L59.3598099,39.5H7.4999475V36.5z M35.4999466,51.5   c0,2.2055664-1.7944336,4-4,4h-20c-2.2055664,0-4-1.7944336-4-4v-2c0-2.2055664,1.7944336-4,4-4h20c2.2055664,0,4,1.7944336,4,4   V51.5z M31.4999466,43.5h-20h-3c-0.5512695,0-1-0.4487305-1-1v-1h52c0.0927734,0,0.1855469-0.0131836,0.2749023-0.0385742   l5.7250977-1.6357422V41.5c0,1.1030273-0.8969727,2-2,2h-8h-4H31.4999466z M54.4999466,45.5v6h-2v-6H54.4999466z    M67.4140091,50.6416016l-1.5996094,3.2001953C65.3031693,54.8647461,64.2748489,55.5,63.1312943,55.5H43.4999466   c-0.5512695,0-1-0.4487305-1-1s0.4487305-1,1-1h8h4h6.8671875c1.1435547,0,2.171875-0.6352539,2.6835938-1.6582031   l0.9526367-1.90625C66.1376419,49.6669922,66.4081497,49.5,66.708931,49.5c0.3964844,0,0.6010742,0.2617188,0.6708984,0.3740234   C67.4491653,49.9863281,67.5917435,50.2866211,67.4140091,50.6416016z"/><path d="M21.4999466,47.5c-1.6542969,0-3,1.3457031-3,3s1.3457031,3,3,3s3-1.3457031,3-3S23.1542435,47.5,21.4999466,47.5z    M21.4999466,51.5c-0.5512695,0-1-0.4487305-1-1s0.4487305-1,1-1s1,0.4487305,1,1S22.0512161,51.5,21.4999466,51.5z"/><path d="M12.4999475,47.5c-1.6542969,0-3,1.3457031-3,3s1.3457031,3,3,3s3-1.3457031,3-3S14.1542444,47.5,12.4999475,47.5z    M12.4999475,51.5c-0.5512695,0-1-0.4487305-1-1s0.4487305-1,1-1s1,0.4487305,1,1S13.0512171,51.5,12.4999475,51.5z"/><path d="M30.4999466,47.5c-1.6542969,0-3,1.3457031-3,3s1.3457031,3,3,3s3-1.3457031,3-3S32.1542435,47.5,30.4999466,47.5z    M30.4999466,51.5c-0.5512695,0-1-0.4487305-1-1s0.4487305-1,1-1s1,0.4487305,1,1S31.0512161,51.5,30.4999466,51.5z"/></g><text x="0" y="90" fill="#000000" font-size="5px" font-weight="bold" font-family="'Helvetica Neue', Helvetica, Arial-Unicode, Arial, Sans-serif">Created by Edwin Prayogi M</text><text x="0" y="95" fill="#000000" font-size="5px" font-weight="bold" font-family="'Helvetica Neue', Helvetica, Arial-Unicode, Arial, Sans-serif">from the Noun Project</text></svg>