<svg xmlns="http://www.w3.org/2000/svg" xmlns:xlink="http://www.w3.org/1999/xlink" version="1.1" x="0px" y="0px" viewBox="0 0 75 93.75" style="enable-background:new 0 0 75 75;" xml:space="preserve"><g><path d="M69.2822113,24.8769531c-0.2109375-0.2641602-0.5351563-0.4072266-0.878418-0.3720703l-45.9038086,4.4423218V26.5   c0-1.6542969-1.3457031-3-3-3h-8c-1.6542969,0-3,1.3457031-3,3v3.802063l-1.1928711,0.1154175   c-1.0302734,0.1000977-1.8071289,0.9555664-1.8071289,1.9907227V40.5c0,2.2055664,1.7944336,4,4,4h2v2h-2   c-0.5522461,0-1,0.4477539-1,1v3c0,0.5522461,0.4477539,1,1,1h9c0.5522461,0,1-0.4477539,1-1v-3c0-0.5522461-0.4477539-1-1-1h-1v-2   H56.729969c3.8803711,0,7.3115196-2.4731445,8.5385704-6.1538086l4.1801758-12.5297852   C69.5556488,25.4951172,69.4931488,25.1416016,69.2822113,24.8769531z M10.4999866,26.5c0-0.5512695,0.4487305-1,1-1h8   c0.5512695,0,1,0.4487305,1,1h-6c-0.5522461,0-1,0.4477539-1,1s0.4477539,1,1,1h6v0.6407471l-9.0114136,0.8720703   l-0.9885864,0.0955811V26.5z M17.4999866,49.5h-7v-1h2h4h1V49.5z M13.4999866,46.5v-2h2v2H13.4999866z M63.3710823,37.7133789   C62.4169807,40.5766602,59.7480354,42.5,56.729969,42.5H16.4999866h-4h-3c-1.1030273,0-2-0.8969727-2-2v-8.0917969   l4.6436768-0.4494019l9.4525146-0.9138794c0.00177-0.0001831,0.0031128-0.0012207,0.0048828-0.0014038l45.4633789-4.3999634   L63.3710823,37.7133789z"/><path d="M15.0043812,35.5927734C15.052721,36.1108398,15.4882679,36.5,15.9990101,36.5   c0.0307617,0,0.0620117-0.0014648,0.09375-0.0043945l43-4c0.5498047-0.0512695,0.9541016-0.5380859,0.902832-1.0883789   c-0.0512695-0.5493164-0.5332031-0.953125-1.0883789-0.902832l-43,4   C15.3574085,34.5556641,14.9531116,35.0424805,15.0043812,35.5927734z"/><path d="M58.9072151,35.5043945l-23.4995117,2.1860352c-0.5498047,0.0512695-0.9541016,0.5380859-0.902832,1.0883789   c0.0483398,0.5180664,0.4838867,0.9072266,0.9946289,0.9072266c0.0307617,0,0.0620117-0.0014648,0.09375-0.0043945   l23.4995117-2.1860352c0.5498047-0.0512695,0.9541016-0.5380859,0.902832-1.0883789   C59.9443245,35.8579102,59.4623909,35.456543,58.9072151,35.5043945z"/></g><text x="0" y="90" fill="#000000" font-size="5px" font-weight="bold" font-family="'Helvetica Neue', Helvetica, Arial-Unicode, Arial, Sans-serif">Created by Edwin Prayogi M</text><text x="0" y="95" fill="#000000" font-size="5px" font-weight="bold" font-family="'Helvetica Neue', Helvetica, Arial-Unicode, Arial, Sans-serif">from the Noun Project</text></svg>