<svg xmlns="http://www.w3.org/2000/svg" xmlns:xlink="http://www.w3.org/1999/xlink" version="1.1" x="0px" y="0px" viewBox="0 0 75 93.75" style="enable-background:new 0 0 75 75;" xml:space="preserve"><g><path d="M66.5,22.5h-8h-6h-44c-1.6542969,0-3,1.3457031-3,3v21c0,0.5522461,0.4477539,1,1,1h2c0,2.7568359,2.2431641,5,5,5   s5-2.2431641,5-5h2v4c0,0.5522461,0.4477539,1,1,1h17c0.5522461,0,1-0.4477539,1-1v-4h2h7h2c0,2.7568359,2.2431641,5,5,5   s5-2.2431641,5-5h2h1c1.6542969,0,3-1.3457031,3-3v-3c0-0.5522461-0.4477539-1-1-1h-2v-4   c0-0.0653076-0.0252075-0.1223145-0.0371704-0.184082c-0.006958-0.0368042,0.0039063-0.0741577-0.0072632-0.1103516   L60.7769775,27.5H63.5v4c0,1.6542969,1.3457031,3,3,3s3-1.3457031,3-3v-6C69.5,23.8457031,68.1542969,22.5,66.5,22.5z M63.5,42.5h1   v2c0,0.5512695-0.4487305,1-1,1V42.5z M13.5,50.5c-1.6542969,0-3-1.3457031-3-3c0-0.269043,0.0302734-0.5078125,0.0991211-0.753418   C10.9355469,45.4238281,12.128418,44.5,13.5,44.5c0.1714478,0,0.3400879,0.0144653,0.5046387,0.0422974   c1.1518555,0.1952515,2.1026611,1.0498657,2.4025879,2.2282104C16.4697266,46.9921875,16.5,47.230957,16.5,47.5   C16.5,49.1542969,15.1542969,50.5,13.5,50.5z M26,50.5c-0.2758789,0-0.5-0.2241211-0.5-0.5s0.2241211-0.5,0.5-0.5   s0.5,0.2241211,0.5,0.5S26.2758789,50.5,26,50.5z M34,50.5c-0.2758789,0-0.5-0.2241211-0.5-0.5s0.2241211-0.5,0.5-0.5   s0.5,0.2241211,0.5,0.5S34.2758789,50.5,34,50.5z M37.5,50.5h-1.050293C36.4829102,50.3383789,36.5,50.1713867,36.5,50   c0-1.378418-1.121582-2.5-2.5-2.5s-2.5,1.121582-2.5,2.5c0,0.1713867,0.0170898,0.3383789,0.050293,0.5H28.449707   C28.4829102,50.3383789,28.5,50.1713867,28.5,50c0-1.378418-1.121582-2.5-2.5-2.5s-2.5,1.121582-2.5,2.5   c0,0.1713867,0.0170898,0.3383789,0.050293,0.5H22.5v-3h1c0.2651367,0,0.5195313-0.1054688,0.7070313-0.2929688L25.9140625,45.5   h3.171875l1.7070313,1.7070313C30.9804688,47.3945313,31.2348633,47.5,31.5,47.5H34h1.3378906L37.5,48.2208252V50.5z    M37.5,46.1124878l-1.6835938-0.5612183C35.7143555,45.5170898,35.6074219,45.5,35.5,45.5h-3.5859375l-1.7070313-1.7070313   C30.0195313,43.6054688,29.7651367,43.5,29.5,43.5h-4c-0.2651367,0-0.5195313,0.1054688-0.7070313,0.2929688L23.0859375,45.5H22.5   v-3h15V46.1124878z M47.5,45.5h-5v-13h5V45.5z M55.5,50.5c-1.6542969,0-3-1.3457031-3-3   c0-0.269043,0.0302734-0.5078125,0.0991211-0.753418C52.9355469,45.4238281,54.128418,44.5,55.5,44.5   c0.1714478,0,0.3400879,0.0144653,0.5046387,0.0422974c1.1518555,0.1952515,2.1026611,1.0498657,2.4025879,2.2282104   C58.4697266,46.9921875,58.5,47.230957,58.5,47.5C58.5,49.1542969,57.1542969,50.5,55.5,50.5z M61.5,41.5v4h-1.4174805   c-0.003418-0.0078735-0.0083618-0.0147705-0.0118408-0.022644c-0.0249023-0.0567017-0.0584106-0.1074829-0.0852661-0.1629028   c-0.0872192-0.1800537-0.1793823-0.3564453-0.286377-0.5227661c-0.0510254-0.0793457-0.1100464-0.1513672-0.1652832-0.227356   c-0.0964355-0.1327515-0.194458-0.2631836-0.3029785-0.3851318c-0.0683594-0.0768433-0.1416016-0.1474609-0.2144165-0.2197876   c-0.1094971-0.1087036-0.2214355-0.2133789-0.3403931-0.3114014c-0.0813599-0.0670166-0.1646118-0.1300049-0.25-0.1918335   c-0.1238403-0.0895386-0.2512817-0.1721802-0.3829956-0.2501221c-0.09021-0.0533447-0.1799316-0.1057739-0.2735596-0.1535034   c-0.1403809-0.0715942-0.2853394-0.1326294-0.4326172-0.1908569c-0.0933838-0.0369263-0.1846924-0.0765991-0.2805176-0.1079712   c-0.1653442-0.0540771-0.3356934-0.0932007-0.5075684-0.1300049c-0.0847168-0.0181274-0.166687-0.0431519-0.2527466-0.0569458   C56.0356445,42.5250244,55.7704468,42.5,55.5,42.5s-0.5356445,0.0250244-0.7959595,0.0667725   c-0.0871582,0.013916-0.1699829,0.0391235-0.2556763,0.0575562c-0.1699829,0.036499-0.338623,0.0750732-0.5021973,0.128479   c-0.1001587,0.0326538-0.1953735,0.0739136-0.2927856,0.1126099c-0.1409302,0.0560913-0.2799683,0.1141968-0.4146118,0.1824951   c-0.1018677,0.0515747-0.1992188,0.1084595-0.2969971,0.166687c-0.1196289,0.0714111-0.2359619,0.1462402-0.3490601,0.2272339   c-0.0985718,0.0703735-0.1940308,0.1430664-0.2871704,0.2203979c-0.1000366,0.083252-0.1945801,0.1714478-0.2879028,0.2623291   c-0.0913696,0.0887451-0.1815796,0.177063-0.2659912,0.2727051c-0.0823975,0.0935059-0.1564331,0.1935425-0.2318115,0.293335   c-0.0791626,0.1047363-0.1603394,0.2068481-0.2312012,0.3181152c-0.0706177,0.1107788-0.1287231,0.2297974-0.1907349,0.3466797   c-0.0581055,0.1098633-0.1227417,0.2149048-0.1726685,0.3297729C50.9229736,45.4903564,50.9197388,45.494812,50.9174805,45.5H49.5   v-14c0-0.5522461-0.4477539-1-1-1h-7c-0.5522461,0-1,0.4477539-1,1v14h-1v-4c0-0.5522461-0.4477539-1-1-1h-17   c-0.5522461,0-1,0.4477539-1,1v4h-2.4174805c-0.003418-0.0078735-0.0083618-0.0147705-0.0118408-0.022644   c-0.0249023-0.0567017-0.0584106-0.1074829-0.0852661-0.1629028c-0.0872192-0.1800537-0.1793823-0.3564453-0.286377-0.5227661   c-0.0510254-0.0793457-0.1100464-0.1513672-0.1652832-0.227356c-0.0964355-0.1327515-0.194458-0.2631836-0.3029785-0.3851318   c-0.0683594-0.0768433-0.1416016-0.1474609-0.2144165-0.2197876c-0.1094971-0.1087036-0.2214355-0.2133789-0.3403931-0.3114014   c-0.0813599-0.0670166-0.1646118-0.1300049-0.25-0.1918335c-0.1238403-0.0895386-0.2512817-0.1721802-0.3829956-0.2501221   c-0.09021-0.0533447-0.1799316-0.1057739-0.2735596-0.1535034c-0.1403809-0.0715942-0.2853394-0.1326294-0.4326172-0.1908569   c-0.0933838-0.0369263-0.1846924-0.0765991-0.2805176-0.1079712c-0.1653442-0.0540771-0.3356934-0.0932007-0.5075684-0.1300049   c-0.0847168-0.0181274-0.166687-0.0431519-0.2527466-0.0569458C14.0356445,42.5250244,13.7704468,42.5,13.5,42.5   s-0.5356445,0.0250244-0.7959595,0.0667725c-0.0871582,0.013916-0.1699829,0.0391235-0.2556763,0.0575562   c-0.1699829,0.036499-0.338623,0.0750732-0.5021973,0.128479c-0.1001587,0.0326538-0.1953735,0.0739136-0.2927856,0.1126099   c-0.1409302,0.0560913-0.2799683,0.1141968-0.4146118,0.1824951c-0.1018677,0.0515747-0.1992188,0.1084595-0.2969971,0.166687   c-0.1196289,0.0714111-0.2359619,0.1462402-0.3490601,0.2272339c-0.0985718,0.0703735-0.1940308,0.1430664-0.2871704,0.2203979   c-0.1000366,0.083252-0.1945801,0.1714478-0.2879028,0.2623291c-0.0913696,0.0887451-0.1815796,0.177063-0.2659912,0.2727051   c-0.0823975,0.0935059-0.1564331,0.1935425-0.2318115,0.293335c-0.0791626,0.1047363-0.1603394,0.2068481-0.2312012,0.3181152   c-0.0706177,0.1107788-0.1287231,0.2297974-0.1907349,0.3466797c-0.0581055,0.1098633-0.1227417,0.2149048-0.1726685,0.3297729   C8.9229736,45.4903564,8.9197388,45.494812,8.9174805,45.5H7.5v-20c0-0.5512695,0.4487305-1,1-1h43v12c0,0.5522461,0.4477539,1,1,1   h9V41.5z M61.1455078,35.5H53.5v-11h4.2607422l0.0021973,0.0071411l0.7009277,2.2858276   c0.0014648,0.0048218,0.0049438,0.0083618,0.0064697,0.0131226L61.1455078,35.5z M67.5,31.5c0,0.5512695-0.4487305,1-1,1   s-1-0.4487305-1-1v-5c0-0.5522461-0.4477539-1-1-1h-4.3384399l-0.3076782-1H66.5c0.5512695,0,1,0.4487305,1,1V31.5z"/><path d="M35.5,29.5h-17v-1c0-0.5522461-0.4477539-1-1-1h-7c-0.5522461,0-1,0.4477539-1,1v8c0,0.5522461,0.4477539,1,1,1h7   c0.5522461,0,1-0.4477539,1-1v-1h17c0.5522461,0,1-0.4477539,1-1v-4C36.5,29.9477539,36.0522461,29.5,35.5,29.5z M16.5,30.5v4v1h-5   v-6h5V30.5z M34.5,33.5h-16v-2h16V33.5z"/><path d="M44.5,40.5h1c0.5522461,0,1-0.4477539,1-1s-0.4477539-1-1-1h-1c-0.5522461,0-1,0.4477539-1,1S43.9477539,40.5,44.5,40.5z"/></g><text x="0" y="90" fill="#000000" font-size="5px" font-weight="bold" font-family="'Helvetica Neue', Helvetica, Arial-Unicode, Arial, Sans-serif">Created by Edwin Prayogi M</text><text x="0" y="95" fill="#000000" font-size="5px" font-weight="bold" font-family="'Helvetica Neue', Helvetica, Arial-Unicode, Arial, Sans-serif">from the Noun Project</text></svg>