<svg xmlns="http://www.w3.org/2000/svg" xmlns:xlink="http://www.w3.org/1999/xlink" version="1.1" x="0px" y="0px" viewBox="0 0 75 93.75" style="enable-background:new 0 0 75 75;" xml:space="preserve"><g><path d="M38.4985352,24.7470703C38.315918,24.5878906,38.0820313,24.5,37.8398438,24.5H19.7597656   c-0.3300781,0-0.6386719,0.1630859-0.8251953,0.4355469l-4.7900391,7c-0.2094727,0.3056641-0.2324219,0.703125-0.059082,1.03125   C14.2583008,33.2949219,14.5986328,33.5,14.9697266,33.5h30.8701172c0.4165039,0,0.7895508-0.2578125,0.9360352-0.6484375   c0.1464844-0.3896484,0.0361328-0.8300781-0.2773438-1.1044922L38.4985352,24.7470703z M26.5,31.5h-9.6342773l3.4213867-5H26.5   V31.5z M28.5,31.5v-5h8.9638672l5.7143555,5H28.5z"/><path d="M69.4240723,32.1239014c-0.0166016-0.0407104-0.0461426-0.0720825-0.067749-0.1098633   c-0.0402222-0.0706177-0.0789795-0.1412354-0.1347656-0.1998291c-0.034729-0.036499-0.0782471-0.0603638-0.118042-0.0913086   c-0.0581055-0.045166-0.1140137-0.0906982-0.1816406-0.1223755c-0.0498047-0.0234985-0.1043091-0.0322876-0.1582642-0.0473633   c-0.0532837-0.0148926-0.1013794-0.0413208-0.1581421-0.0473022l-18.6782227-1.9667969l-9.7583008-8.7822266   C39.9853516,20.5917969,39.7470703,20.5,39.5,20.5h-22c-0.3344727,0-0.6464844,0.1669922-0.8320313,0.4453125l-5.8276367,8.7412109   L6.128418,31.5712891C5.7490234,31.7236328,5.5,32.0908203,5.5,32.5v11v3c0,0.5527344,0.4477539,1,1,1h4.069458   c0.4946289,3.9399414,3.8587646,7,7.930542,7s7.4359131-3.0600586,7.930542-7h22.138916   c0.4946289,3.9399414,3.8587646,7,7.930542,7s7.4359131-3.0600586,7.930542-7H68.5c0.5522461,0,1-0.4472656,1-1v-3v-5v-6   C69.5,32.3668823,69.4716797,32.2406616,69.4240723,32.1239014z M10.7318726,44.6052246   c-0.0527344,0.2155762-0.0908203,0.4349365-0.1251221,0.6552734C10.5941772,45.3410034,10.571228,45.4188232,10.5610352,45.5H7.5   v-1h3.2519531C10.743042,44.5345459,10.7403564,44.5706177,10.7318726,44.6052246z M18.5,52.5c-3.3085938,0-6-2.6914063-6-6   c0-0.9052734,0.1953125-1.7675781,0.5844727-2.5732422C14.0830078,41.8134766,16.1582031,40.5,18.5,40.5   s4.4169922,1.3134766,5.4194336,3.4355469C24.3046875,44.7324219,24.5,45.5947266,24.5,46.5   C24.5,49.8085938,21.8085938,52.5,18.5,52.5z M48.7318726,44.6052246   c-0.0527344,0.2155762-0.0908203,0.4349365-0.1251221,0.6552734C48.5941772,45.3410034,48.571228,45.4188232,48.5610352,45.5   H26.4389648c-0.0098877-0.0790405-0.0323486-0.1548462-0.0445557-0.2332764   c-0.0345459-0.2235107-0.0732422-0.4456177-0.126709-0.6638794C26.2593994,44.5690308,26.2567749,44.5337524,26.2480469,44.5   h22.5039063C48.743042,44.5345459,48.7403564,44.5706177,48.7318726,44.6052246z M56.5,52.5c-3.3085938,0-6-2.6914063-6-6   c0-0.9052734,0.1953125-1.7675781,0.5844727-2.5732422C52.0830078,41.8134766,54.1582031,40.5,56.5,40.5   s4.4169922,1.3134766,5.4194336,3.4355469C62.3046875,44.7324219,62.5,45.5947266,62.5,46.5   C62.5,49.8085938,59.8085938,52.5,56.5,52.5z M67.5,45.5h-3.0610352c-0.0098877-0.0790405-0.0323486-0.1548462-0.0445557-0.2332764   c-0.0345459-0.2235107-0.0732422-0.4456177-0.126709-0.6638794C64.2593994,44.5690308,64.2567749,44.5337524,64.2480469,44.5H67.5   V45.5z M67.5,42.5h-4.074707c-0.0453491-0.0792847-0.1020508-0.1487427-0.1497803-0.2260742   c-0.0872803-0.1413574-0.1784058-0.2780762-0.2733154-0.4125977c-0.1173096-0.1662598-0.2397461-0.3261108-0.3681641-0.4815674   c-0.1033936-0.1251221-0.2081299-0.2473755-0.3183594-0.3652954c-0.1376953-0.1473389-0.2816772-0.2861938-0.4293823-0.421875   c-0.1171265-0.107605-0.2338867-0.2144775-0.3569336-0.3145142c-0.1572266-0.1278076-0.3214111-0.2443848-0.4877319-0.359375   c-0.1278687-0.0884399-0.2536621-0.1785889-0.3865356-0.2592773c-0.1769409-0.1074829-0.3613892-0.2008057-0.5466309-0.2941284   c-0.1347046-0.0678711-0.2662964-0.1401367-0.4050293-0.2002563c-0.1988525-0.0862427-0.4052124-0.1549683-0.6115723-0.2249146   c-0.135498-0.0458984-0.267334-0.0993042-0.4058838-0.1380005c-0.2336426-0.0652466-0.4744873-0.1090698-0.7155762-0.1532593   c-0.1192627-0.0218506-0.2348022-0.0541382-0.3556519-0.0706787C57.2493896,38.5281982,56.8776855,38.5,56.5,38.5   c-0.3775024,0-0.7490234,0.0280762-1.1142578,0.078064c-0.1226196,0.0167236-0.2398071,0.0494385-0.3607788,0.0717163   c-0.2391968,0.0439453-0.4783936,0.0873413-0.7102051,0.1520996c-0.1409912,0.0393677-0.2752075,0.093689-0.413147,0.1405029   c-0.203064,0.0690308-0.4063721,0.1363525-0.6021729,0.2211914c-0.1437988,0.0621948-0.2801514,0.1370239-0.4196167,0.2075195   c-0.1790771,0.0905762-0.3577271,0.180603-0.5291138,0.2844238c-0.1399536,0.0847778-0.2722778,0.1794434-0.4066162,0.2727661   c-0.1580811,0.1098022-0.3146362,0.220459-0.4644775,0.3418579c-0.1312256,0.1062622-0.2554321,0.2200317-0.3799438,0.3348389   c-0.1386719,0.1279907-0.274353,0.2582397-0.4041138,0.3965454c-0.118103,0.1257935-0.2300415,0.2565308-0.340332,0.390564   c-0.1204834,0.1464844-0.2359009,0.2967529-0.3465576,0.4527588c-0.100708,0.1420288-0.1970215,0.2867432-0.2890625,0.4364014   c-0.0461426,0.0748901-0.1010132,0.1420288-0.1448975,0.21875H25.425293   c-0.0453491-0.0792847-0.1020508-0.1487427-0.1497803-0.2260742c-0.0872803-0.1413574-0.1784058-0.2780762-0.2733154-0.4125977   c-0.1173096-0.1662598-0.2397461-0.3261108-0.3681641-0.4815674c-0.1033936-0.1251221-0.2081299-0.2473755-0.3183594-0.3652954   c-0.1376953-0.1473389-0.2816772-0.2861938-0.4293823-0.421875c-0.1171265-0.107605-0.2338867-0.2144775-0.3569336-0.3145142   c-0.1572266-0.1278076-0.3214111-0.2443848-0.4877319-0.359375c-0.1278687-0.0884399-0.2536621-0.1785889-0.3865356-0.2592773   c-0.1769409-0.1074829-0.3613892-0.2008057-0.5466309-0.2941284c-0.1347046-0.0678711-0.2662964-0.1401367-0.4050293-0.2002563   c-0.1988525-0.0862427-0.4052124-0.1549683-0.6115723-0.2249146c-0.135498-0.0458984-0.267334-0.0993042-0.4058838-0.1380005   c-0.2336426-0.0652466-0.4744873-0.1090698-0.7155762-0.1532593c-0.1192627-0.0218506-0.2348022-0.0541382-0.3556519-0.0706787   C19.2493896,38.5281982,18.8776855,38.5,18.5,38.5c-0.3775024,0-0.7490234,0.0280762-1.1142578,0.078064   c-0.1226196,0.0167236-0.2398071,0.0494385-0.3607788,0.0717163c-0.2391968,0.0439453-0.4783936,0.0873413-0.7102051,0.1520996   c-0.1409912,0.0393677-0.2752075,0.093689-0.413147,0.1405029c-0.203064,0.0690308-0.4063721,0.1363525-0.6021729,0.2211914   c-0.1437988,0.0621948-0.2801514,0.1370239-0.4196167,0.2075195c-0.1790771,0.0905762-0.3577271,0.180603-0.5291138,0.2844238   c-0.1399536,0.0847778-0.2722778,0.1794434-0.4066162,0.2727661c-0.1580811,0.1098022-0.3146362,0.220459-0.4644775,0.3418579   c-0.1312256,0.1062622-0.2554321,0.2200317-0.3799438,0.3348389c-0.1386719,0.1279907-0.274353,0.2582397-0.4041138,0.3965454   c-0.118103,0.1257935-0.2300415,0.2565308-0.340332,0.390564c-0.1204834,0.1464844-0.2359009,0.2967529-0.3465576,0.4527588   c-0.100708,0.1420288-0.1970215,0.2867432-0.2890625,0.4364014c-0.0461426,0.0748901-0.1010132,0.1420288-0.1448975,0.21875H7.5   v-9.3232422l4.371582-1.7480469c0.1875-0.0751953,0.3481445-0.2060547,0.4604492-0.3740234L18.0351563,22.5h21.0810547   l9.7148438,8.7431641c0.1567383,0.1416016,0.3544922,0.2294922,0.5644531,0.2509766L62.5,32.87323V36.5   c0,0.4091797,0.2490234,0.7763672,0.628418,0.9287109L67.5,39.1773682V42.5z M67.5,37.0234375l-3-1.2001953v-2.739563l3,0.3157349   V37.0234375z"/><path d="M56.5,42.5c-2.2055664,0-4,1.7939453-4,4s1.7944336,4,4,4s4-1.7939453,4-4S58.7055664,42.5,56.5,42.5z M56.5,48.5   c-1.1030273,0-2-0.8974609-2-2s0.8969727-2,2-2s2,0.8974609,2,2S57.6030273,48.5,56.5,48.5z"/><path d="M18.5,42.5c-2.2055664,0-4,1.7939453-4,4s1.7944336,4,4,4s4-1.7939453,4-4S20.7055664,42.5,18.5,42.5z M18.5,48.5   c-1.1030273,0-2-0.8974609-2-2s0.8969727-2,2-2s2,0.8974609,2,2S19.6030273,48.5,18.5,48.5z"/><path d="M31.5,35.5h-2c-0.5522461,0-1,0.4472656-1,1s0.4477539,1,1,1h2c0.5522461,0,1-0.4472656,1-1S32.0522461,35.5,31.5,35.5z"/></g><text x="0" y="90" fill="#000000" font-size="5px" font-weight="bold" font-family="'Helvetica Neue', Helvetica, Arial-Unicode, Arial, Sans-serif">Created by Edwin Prayogi M</text><text x="0" y="95" fill="#000000" font-size="5px" font-weight="bold" font-family="'Helvetica Neue', Helvetica, Arial-Unicode, Arial, Sans-serif">from the Noun Project</text></svg>